# xmcd
#
# Track frame offsets:
#	150
#	20869
#	38159
#	63212
#	80387
#	87770
#	107836
#	126055
#	149926
#	180647
#	197918
#	225014
#	243617
#	262654
#
# Disc length: 3745 seconds
#
# Revision: 0
# Processed by: cddbd v1.4PL0 Copyright (c) Steve Scherf et al.
# Submitted via: dBpowerAMP V4.0
#
DISCID=b90e9f0e
DTITLE=Johnny Thunders - Live and Waster
DYEAR=1900
DGENRE=
TTITLE0=Joey Joey
TTITLE1=As Tears Go By
TTITLE2=Dissapointed In You
TTITLE3=Sad Vacation
TTITLE4=Copy Cat
TTITLE5=Lydia
TTITLE6=In Cold Blood
TTITLE7=Children
TTITLE8=You Can't Put Your Arms Around a Memory
TTITLE9=Bring It On Home
TTITLE10=Eve Of Destruction
TTITLE11=You Can Walk My Dog
TTITLE12=It's Not Enough
TTITLE13=So Alone
EXTD=
EXTT0=
EXTT1=
EXTT2=
EXTT3=
EXTT4=
EXTT5=
EXTT6=
EXTT7=
EXTT8=
EXTT9=
EXTT10=
EXTT11=
EXTT12=
EXTT13=
PLAYORDER=
